<?xml version="1.0" encoding="utf-8"?>
<!-- Generator: Adobe Illustrator 26.0.0, SVG Export Plug-In . SVG Version: 6.00 Build 0)  -->
<svg version="1.1" id="Component_122_1" xmlns="http://www.w3.org/2000/svg" xmlns:xlink="http://www.w3.org/1999/xlink" x="0px"
	 y="0px" viewBox="0 0 720.5 171.6" style="enable-background:new 0 0 720.5 171.6;" xml:space="preserve">
<style type="text/css">
	.st0{fill:#FFFFFF;}
	.st1{fill:none;}
	.st2{fill:#229022;}
	.st3{fill:#0A7533;}
	.st4{opacity:0.5;fill:#003300;enable-background:new    ;}
	.st5{fill:#0CB04A;}
	.st6{enable-background:new    ;}
</style>
<circle class="st0" cx="163" cy="130.2" r="24.3"/>
<g>
	<g>
		<g>
			<g>
				<path d="M12.9,88V32c0-1.2,0.5-2.1,1.3-3c0.8-0.8,1.9-1.3,3-1.3h8.4c1.2,0,2.3,0.5,3.1,1.3c0.8,0.8,1.2,1.9,1.2,3v55.9
					c0,1.2-0.5,2.1-1.3,3s-1.9,1.2-3,1.2h-8.4c-1.2,0-2.1-0.4-3-1.2C13.3,90.2,12.9,89.2,12.9,88z"/>
				<path d="M42.7,87.9V32c0-1.2,0.4-2.1,1.2-3c0.8-0.8,1.8-1.3,3-1.3H60c1.1,0,2.1,0.5,3.3,1.3s2.1,1.9,2.8,3l27.2,41.8V31.9
					c0-1.2,0.4-2.1,1.2-3c0.8-0.8,1.8-1.2,3-1.2h7.7c1.2,0,2.1,0.4,3,1.2c0.8,0.8,1.2,1.9,1.2,3.1v55.9c0,1.2-0.4,2.1-1.2,3
					c-0.8,0.8-1.8,1.2-3,1.2H90.4c-1.2,0-2.4-0.4-3.6-1.2s-2.1-1.8-3-3L59.1,49.5V88c0,1.2-0.4,2.1-1.2,3c-0.8,0.8-1.8,1.2-3,1.2
					h-7.8c-1.2,0-2.1-0.4-3-1.2C43.2,90.2,42.7,89.2,42.7,87.9z"/>
				<path d="M217.3,88V32c0-1.2,0.5-2.1,1.3-3s1.9-1.3,3-1.3h8.4c1.2,0,2.3,0.5,3.1,1.3c0.8,0.8,1.2,1.9,1.2,3v55.9
					c0,1.2-0.5,2.1-1.3,3s-1.9,1.2-3,1.2h-8.4c-1.2,0-2.1-0.4-3-1.2C217.7,90.2,217.3,89.2,217.3,88z"/>
				<path d="M247.2,87.9V32c0-1.2,0.4-2.1,1.2-3c0.8-0.8,1.8-1.3,3-1.3h13.2c1.1,0,2.1,0.5,3.3,1.3c1.2,0.8,2.1,1.9,2.8,3l27.2,41.8
					V31.9c0-1.2,0.4-2.1,1.2-3s1.8-1.2,3-1.2h7.7c1.2,0,2.1,0.4,3,1.2s1.2,1.9,1.2,3.1v55.9c0,1.2-0.4,2.1-1.2,3s-1.8,1.2-3,1.2h-15
					c-1.2,0-2.4-0.4-3.6-1.2s-2.1-1.8-3-3l-24.8-38.6v38.6c0,1.2-0.4,2.1-1.2,3c-0.8,0.8-1.8,1.2-3,1.2h-7.8c-1.2,0-2.1-0.4-3-1.2
					C247.5,90.2,247.2,89.2,247.2,87.9z"/>
				<path d="M323.2,75.7c0-1.8,0.5-3,1.5-3.8c1.1-0.7,2-1.2,3.1-1.2h5.3c2.7,0,4.7,1.4,6.2,4.4s4.5,4.4,9.5,4.4l15.8,0.4
					c5.2,0,7.8-1.8,7.8-5.2c0-2.6-3.2-4.6-9.6-6.2c-2.8-0.7-6.1-1.3-9.5-2s-6.9-1.5-10.3-2.6c-3.4-1.1-6.6-2.3-9.5-3.6
					c-2.8-1.4-5.2-3.3-7-5.7c-1.8-2.4-2.7-5.2-2.7-8.5c0-6.1,2.1-10.7,6.4-13.9c4.3-3.3,11.6-4.9,22.1-4.9l11.4,0.2
					c6.2,0,11.6,1.5,16.6,4.7c5,3.1,7.4,7.1,7.4,11.9c0,1.8-0.5,3-1.5,3.8c-1.1,0.7-2,1.2-3,1.2h-5.3c-2.7,0-4.7-1.4-6.2-4.4
					s-4.5-4.4-9.5-4.4l-13.5-0.2c-5.2,0-7.8,1.8-7.8,5.2c0,1.9,1.7,3.4,5,4.6c3.3,1.2,7.4,2.3,12.1,3.1c4.7,0.9,9.5,2,14.2,3.3
					s8.8,3.4,12.2,6.3c3.3,3,5,6.6,5,11c0,6.1-2.1,10.7-6.4,13.9c-4.3,3.3-11.6,4.9-22.1,4.9l-13.6-0.2c-6.2,0-11.6-1.5-16.6-4.7
					C325.7,84.3,323.2,80.4,323.2,75.7z"/>
				<path d="M398.6,87.9v-56c0-1.2,0.5-2.1,1.3-3c0.8-0.8,1.9-1.2,3-1.2h51.7c1.2,0,2.1,0.5,3,1.3c0.8,0.8,1.2,1.9,1.2,3v4.3
					c0,1.2-0.4,2.1-1.2,3c-0.8,0.8-1.8,1.2-3,1.2h-39.2v13.1h33.7c1.2,0,2.1,0.4,3,1.2c0.8,0.8,1.2,1.8,1.2,3v4.3
					c0,1.2-0.4,2.1-1.2,3c-0.8,0.8-1.8,1.2-3,1.2h-33.7v13.3h39c1.2,0,2.1,0.4,3,1.2c0.8,0.8,1.2,1.8,1.2,3v4.3c0,1.2-0.5,2.1-1.3,3
					c-0.8,0.8-1.9,1.2-3,1.2h-51.6c-1.2,0-2.1-0.4-3-1.2C398.9,90.2,398.6,89.1,398.6,87.9z"/>
				<path d="M467,87.9V32c0-1.2,0.4-2.1,1.2-3c0.8-0.8,1.8-1.3,3-1.3h13.2c1.1,0,2.1,0.5,3.3,1.3c1.2,0.8,2.1,1.9,2.8,3l27.2,41.8
					V31.9c0-1.2,0.4-2.1,1.2-3s1.8-1.2,3-1.2h7.7c1.2,0,2.1,0.4,3,1.2s1.2,1.9,1.2,3.1v55.9c0,1.2-0.4,2.1-1.2,3s-1.8,1.2-3,1.2h-15
					c-1.2,0-2.4-0.4-3.6-1.2c-1.2-0.8-2.1-1.8-3-3l-24.8-38.6v38.6c0,1.2-0.4,2.1-1.2,3s-1.8,1.2-3,1.2h-7.8c-1.2,0-2.1-0.4-3-1.2
					C467.5,90.2,467,89.2,467,87.9z"/>
				<path d="M543.2,75.7c0-1.8,0.5-3,1.5-3.8c1.1-0.7,2-1.2,3.1-1.2h5.3c2.7,0,4.7,1.4,6.2,4.4s4.5,4.4,9.5,4.4l15.8,0.5
					c5.2,0,7.8-1.8,7.8-5.2c0-2.6-3.2-4.6-9.6-6.2c-2.8-0.7-6.1-1.3-9.5-2c-3.4-0.7-6.9-1.5-10.3-2.6c-3.4-1.1-6.6-2.3-9.5-3.6
					c-2.8-1.4-5.2-3.3-7-5.7c-1.8-2.4-2.7-5.2-2.7-8.5c0-6.1,2.1-10.7,6.4-13.9c4.3-3.3,11.6-4.9,22.1-4.9l11.4,0.2
					c6.2,0,11.6,1.5,16.6,4.7c5,3.1,7.4,7.1,7.4,11.9c0,1.8-0.5,3-1.5,3.8c-1.1,0.7-2,1.2-3,1.2h-5.5c-2.7,0-4.7-1.4-6.2-4.4
					s-4.5-4.4-9.5-4.4l-13.5-0.2c-5.2,0-7.8,1.8-7.8,5.2c0,1.9,1.7,3.4,5,4.6c3.3,1.2,7.4,2.3,12.1,3.1c4.7,0.9,9.5,2,14.2,3.3
					c4.7,1.3,8.8,3.4,12.2,6.3c3.3,3,5,6.6,5,11c0,6.1-2.1,10.7-6.4,13.9c-4.3,3.3-11.6,4.9-22.1,4.9l-13.6-0.2
					c-6.2,0-11.6-1.5-16.6-4.7C545.6,84.3,543.2,80.4,543.2,75.7z"/>
				<path d="M618.5,87.9v-56c0-1.2,0.5-2.1,1.3-3c0.8-0.8,1.9-1.2,3-1.2h51.7c1.2,0,2.1,0.5,3,1.3s1.2,1.9,1.2,3v4.3
					c0,1.2-0.4,2.1-1.2,3s-1.8,1.2-3,1.2h-39.2v13.1H669c1.2,0,2.1,0.4,3,1.2c0.8,0.8,1.2,1.8,1.2,3v4.3c0,1.2-0.4,2.1-1.2,3
					c-0.8,0.8-1.8,1.2-3,1.2h-33.7v13.3h39c1.2,0,2.1,0.4,3,1.2c0.8,0.8,1.2,1.8,1.2,3v4.3c0,1.2-0.5,2.1-1.3,3
					c-0.8,0.8-1.9,1.2-3,1.2h-51.6c-1.2,0-2.1-0.4-3-1.2C618.9,90.2,618.5,89.1,618.5,87.9z"/>
				<g>
					<polygon class="st1" points="163.9,49.7 147.1,27.6 163.9,49.8 					"/>
					<polygon class="st2" points="163.9,49.8 147.1,27.6 115.2,27.6 163.9,92.4 179.9,70.8 163.9,49.7 					"/>
					<polygon class="st3" points="180.3,27.6 163.9,49.7 179.9,70.8 212.4,27.6 					"/>
					<polygon class="st4" points="166.5,46.3 163.9,49.7 179.9,70.8 183,66.8 					"/>
				</g>
			</g>
		</g>
		<g>
			<path class="st5" d="M163.9,113.8c-3,0-5.3,2.4-5.3,5.3v5.2h10.6h0.1v-5.2C169.2,116.1,166.8,113.8,163.9,113.8z"/>
			<path class="st5" d="M163.9,92.5c-19.2,0-34.8,15.5-34.8,34.8s15.5,34.8,34.8,34.8s34.8-15.5,34.8-34.8S183.1,92.5,163.9,92.5z
				 M178.9,141.9c0,2.1-1.8,3.9-3.9,3.9h-22.3c-2.1,0-3.9-1.8-3.9-3.9v-13.4c0-2.1,1.8-3.9,3.9-3.9h0.6v-5.2
				c0-5.9,4.7-10.7,10.6-10.7c5.9,0,10.7,4.9,10.7,10.7v5.2h0.6c2.3,0,4,1.8,3.9,3.9L178.9,141.9L178.9,141.9z"/>
			<g class="st6">
				<path class="st5" d="M160.1,131.5c-0.1-0.1-0.1-0.2-0.1-0.4s0.1-0.4,0.4-0.5l2.3-1.9c0.4-0.2,0.8-0.5,1.3-0.5h1.3
					c0.2,0,0.5,0.1,0.6,0.2c0.1,0.1,0.2,0.4,0.2,0.6v11.4c0,0.2-0.1,0.5-0.2,0.6c-0.2,0.1-0.4,0.2-0.6,0.2h-1.7
					c-0.2,0-0.5-0.1-0.6-0.2c-0.1-0.1-0.2-0.4-0.2-0.6v-8.9l-1.1,0.8c-0.1,0.1-0.2,0.1-0.5,0.1c-0.1,0-0.2-0.1-0.4-0.2L160.1,131.5z
					"/>
			</g>
		</g>
	</g>
	<g>
		<path class="st3" d="M226.6,115.8l9.6,21.9h-2.7l-2.7-6.5h-8.2l-2.7,6.5h-2.7L226.6,115.8z M226.6,121.3l-3.4,7.8h6.7L226.6,121.3
			z"/>
		<path class="st3" d="M240.8,126.4h-2.4v-1.9h2.4v-5.3h2.3v5.3h2.4v1.9h-2.4v11.3h-2.3V126.4z"/>
		<path class="st3" d="M250.8,126.4h-2.4v-1.9h2.4v-5.3h2.3v5.3h2.4v1.9h-2.4v11.3h-2.3V126.4z"/>
		<path class="st3" d="M272.7,124.5v13.2h-2.2v-2.4c-0.5,1-1.2,1.7-2,2.2c-0.8,0.5-1.7,0.8-2.8,0.8c-1.9,0-3.4-0.6-4.6-1.9
			c-1.2-1.3-1.7-3-1.7-5.2c0-2.2,0.6-3.9,1.7-5.2c1.1-1.3,2.6-1.9,4.5-1.9c1.1,0,2.1,0.2,2.9,0.7c0.8,0.5,1.5,1.2,2,2.2v-2.5H272.7z
			 M270.5,131.2c0-1.5-0.4-2.7-1.2-3.6c-0.8-0.9-1.9-1.4-3.2-1.4c-1.4,0-2.4,0.4-3.2,1.3c-0.8,0.8-1.1,2-1.1,3.5
			c0,1.6,0.4,2.8,1.1,3.7c0.8,0.9,1.8,1.3,3.2,1.3c1.3,0,2.4-0.4,3.2-1.3C270.1,133.9,270.5,132.7,270.5,131.2z"/>
		<path class="st3" d="M289.7,134.6v2.6c-0.6,0.4-1.3,0.6-2,0.8c-0.7,0.2-1.5,0.3-2.4,0.3c-2,0-3.7-0.6-4.9-1.9
			c-1.2-1.3-1.9-3-1.9-5.1c0-2.1,0.6-3.8,1.9-5.2c1.3-1.3,2.9-2,4.9-2c0.7,0,1.4,0.1,2.1,0.2c0.7,0.2,1.3,0.4,2,0.7v2.4
			c-0.6-0.4-1.2-0.7-1.8-0.9c-0.6-0.2-1.2-0.3-1.9-0.3c-1.5,0-2.7,0.5-3.6,1.4s-1.3,2.2-1.3,3.7c0,1.4,0.4,2.5,1.3,3.4
			c0.9,0.9,2,1.4,3.4,1.4c0.7,0,1.3-0.1,2-0.4C288.2,135.5,288.9,135.1,289.7,134.6z"/>
		<path class="st3" d="M295.2,137.7v-22.3h2.3v15.1l6.3-6h3l-6.6,6l7.2,7.1h-3.1l-6.8-6.9v6.9H295.2z"/>
		<path class="st3" d="M312.4,126.4H310v-1.9h2.4v-5.3h2.3v5.3h2.4v1.9h-2.4v11.3h-2.3V126.4z"/>
		<path class="st3" d="M321.6,118.2c0-0.5,0.2-0.8,0.5-1.2c0.3-0.3,0.7-0.5,1.2-0.5c0.5,0,0.8,0.2,1.2,0.5c0.3,0.3,0.5,0.7,0.5,1.2
			c0,0.5-0.2,0.8-0.5,1.2c-0.3,0.3-0.7,0.5-1.2,0.5c-0.5,0-0.9-0.2-1.2-0.5C321.7,119,321.6,118.6,321.6,118.2z M322.1,137.7v-13.2
			h2.3v13.2H322.1z"/>
		<path class="st3" d="M341.6,134.6v2.6c-0.6,0.4-1.3,0.6-2,0.8c-0.7,0.2-1.5,0.3-2.4,0.3c-2,0-3.7-0.6-4.9-1.9
			c-1.2-1.3-1.9-3-1.9-5.1c0-2.1,0.6-3.8,1.9-5.2c1.3-1.3,2.9-2,4.9-2c0.7,0,1.4,0.1,2.1,0.2c0.7,0.2,1.3,0.4,2,0.7v2.4
			c-0.6-0.4-1.2-0.7-1.8-0.9c-0.6-0.2-1.2-0.3-1.9-0.3c-1.5,0-2.7,0.5-3.6,1.4c-0.9,0.9-1.3,2.2-1.3,3.7c0,1.4,0.4,2.5,1.3,3.4
			c0.9,0.9,2,1.4,3.4,1.4c0.7,0,1.3-0.1,2-0.4C340.2,135.5,340.9,135.1,341.6,134.6z"/>
		<path class="st3" d="M359.3,124.5v13.2h-2.2v-2.4c-0.5,1-1.2,1.7-2,2.2s-1.7,0.8-2.8,0.8c-1.9,0-3.4-0.6-4.6-1.9
			c-1.2-1.3-1.7-3-1.7-5.2c0-2.2,0.6-3.9,1.7-5.2c1.1-1.3,2.6-1.9,4.5-1.9c1.1,0,2.1,0.2,2.9,0.7c0.8,0.5,1.5,1.2,2,2.2v-2.5H359.3z
			 M357.1,131.2c0-1.5-0.4-2.7-1.2-3.6c-0.8-0.9-1.9-1.4-3.2-1.4c-1.4,0-2.4,0.4-3.2,1.3c-0.8,0.8-1.1,2-1.1,3.5
			c0,1.6,0.4,2.8,1.1,3.7c0.8,0.9,1.8,1.3,3.2,1.3c1.3,0,2.4-0.4,3.2-1.3C356.8,133.9,357.1,132.7,357.1,131.2z"/>
		<path class="st3" d="M366.3,137.7v-22.3h2.3v22.3H366.3z"/>
		<path class="st3" d="M404,121.7c-1-1.1-2.1-1.9-3.2-2.4c-1.1-0.5-2.4-0.8-3.8-0.8c-1.1,0-2.2,0.2-3.3,0.7s-2,1.1-2.8,1.9
			c-0.8,0.8-1.4,1.8-1.8,2.8c-0.4,1-0.6,2.2-0.6,3.4c0,1,0.1,1.9,0.4,2.7c0.2,0.8,0.6,1.6,1.1,2.3c0.8,1.2,1.9,2.1,3.1,2.8
			c1.2,0.6,2.6,1,4,1c1.3,0,2.6-0.3,3.7-0.8c1.2-0.6,2.2-1.4,3.1-2.5v3.3c-1,0.8-2.2,1.3-3.4,1.7c-1.2,0.4-2.4,0.6-3.7,0.6
			c-1.1,0-2.2-0.2-3.3-0.5c-1.1-0.3-2-0.8-3-1.4c-1.5-1.1-2.7-2.4-3.5-3.9c-0.8-1.6-1.2-3.3-1.2-5.1c0-1.6,0.3-3.1,0.8-4.4
			c0.5-1.3,1.4-2.5,2.5-3.6c1.1-1,2.3-1.8,3.6-2.3c1.3-0.5,2.7-0.8,4.3-0.8c1.2,0,2.4,0.2,3.5,0.6c1.1,0.4,2.3,0.9,3.4,1.7V121.7z"
			/>
		<path class="st3" d="M409.9,144.1l3.6-7.7l-5.2-11.9h2.6l3.8,9.4l4.1-9.4h2.5l-8.8,19.6H409.9z"/>
		<path class="st3" d="M425.8,115.4h2.2V127c0.5-1,1.2-1.7,2-2.2c0.8-0.5,1.7-0.7,2.8-0.7c1.9,0,3.4,0.6,4.5,1.9
			c1.1,1.3,1.7,3,1.7,5.2c0,2.1-0.6,3.9-1.7,5.2c-1.2,1.3-2.7,1.9-4.6,1.9c-1,0-1.9-0.3-2.8-0.8c-0.8-0.5-1.5-1.2-2-2.2v2.4h-2.1
			V115.4z M427.9,131.2c0,1.5,0.4,2.7,1.2,3.6c0.8,0.9,1.9,1.3,3.2,1.3c1.3,0,2.4-0.5,3.2-1.4c0.8-0.9,1.1-2.2,1.1-3.8
			c0-1.4-0.4-2.6-1.1-3.4c-0.7-0.8-1.8-1.2-3.1-1.2c-1.3,0-2.4,0.4-3.3,1.3C428.3,128.5,427.9,129.7,427.9,131.2z"/>
		<path class="st3" d="M456.7,131.4h-10.4v0.2c0,1.4,0.4,2.5,1.2,3.4c0.8,0.9,1.9,1.3,3.1,1.3c0.9,0,1.7-0.2,2.4-0.7
			c0.7-0.5,1.3-1.2,1.9-2.2l1.7,1.2c-0.7,1.2-1.5,2.1-2.5,2.7c-1,0.6-2.2,0.9-3.6,0.9c-2,0-3.6-0.7-4.9-2c-1.2-1.3-1.9-3.1-1.9-5.2
			c0-2.1,0.6-3.7,1.8-5.1c1.2-1.3,2.8-2,4.7-2c1.9,0,3.5,0.6,4.6,1.9c1.1,1.2,1.7,2.9,1.7,5.1V131.4z M454.3,129.6
			c-0.1-1.2-0.5-2.1-1.2-2.7c-0.7-0.6-1.6-0.9-2.9-0.9c-1.1,0-2,0.3-2.7,1c-0.7,0.7-1.2,1.5-1.3,2.6H454.3z"/>
		<path class="st3" d="M462.5,137.7v-13.2h2v2.7c0.6-1.1,1.2-2,1.9-2.4c0.7-0.5,1.5-0.7,2.5-0.7c0.3,0,0.5,0,0.8,0.1
			c0.2,0,0.5,0.1,0.7,0.2l-0.7,2c-0.3-0.1-0.5-0.2-0.7-0.2c-0.2,0-0.5-0.1-0.7-0.1c-1.2,0-2.1,0.4-2.7,1.3c-0.6,0.9-0.9,2.2-0.9,3.9
			v6.4H462.5z"/>
		<path class="st3" d="M473.8,135.5l1.9-1.3c0.4,0.7,0.8,1.2,1.4,1.6s1.2,0.5,2,0.5c0.7,0,1.3-0.2,1.8-0.5c0.5-0.4,0.7-0.8,0.7-1.4
			c0-0.5-0.2-0.8-0.5-1.2c-0.3-0.3-0.8-0.6-1.6-0.8l-0.4-0.1c-3.2-1.1-4.8-2.5-4.8-4.1c0-1.2,0.4-2.1,1.3-2.9c0.9-0.7,2-1.1,3.4-1.1
			c1.1,0,2.1,0.2,2.9,0.7c0.8,0.5,1.4,1.1,1.8,1.9l-1.8,1.1c-0.3-0.6-0.7-1.1-1.2-1.4c-0.5-0.3-1.1-0.5-1.8-0.5
			c-0.7,0-1.2,0.2-1.6,0.6c-0.4,0.4-0.6,0.8-0.6,1.4c0,0.8,0.9,1.5,2.6,2c0.3,0.1,0.6,0.2,0.8,0.2c1.4,0.5,2.4,1,3,1.6
			c0.6,0.6,0.8,1.4,0.8,2.3c0,1.2-0.4,2.3-1.3,3c-0.9,0.8-2,1.2-3.5,1.2c-1.2,0-2.3-0.2-3.1-0.7C475,137.1,474.3,136.4,473.8,135.5z
			"/>
		<path class="st3" d="M501.2,131.4h-10.4v0.2c0,1.4,0.4,2.5,1.2,3.4c0.8,0.9,1.9,1.3,3.1,1.3c0.9,0,1.7-0.2,2.4-0.7
			c0.7-0.5,1.3-1.2,1.9-2.2l1.7,1.2c-0.7,1.2-1.5,2.1-2.5,2.7c-1,0.6-2.2,0.9-3.6,0.9c-2,0-3.6-0.7-4.9-2c-1.2-1.3-1.9-3.1-1.9-5.2
			c0-2.1,0.6-3.7,1.8-5.1c1.2-1.3,2.8-2,4.7-2c1.9,0,3.5,0.6,4.6,1.9c1.1,1.2,1.7,2.9,1.7,5.1V131.4z M498.8,129.6
			c-0.1-1.2-0.5-2.1-1.2-2.7c-0.7-0.6-1.6-0.9-2.9-0.9c-1.1,0-2,0.3-2.7,1c-0.7,0.7-1.2,1.5-1.3,2.6H498.8z"/>
		<path class="st3" d="M517.1,134.6v2.6c-0.6,0.4-1.3,0.6-2,0.8c-0.7,0.2-1.5,0.3-2.4,0.3c-2,0-3.7-0.6-4.9-1.9
			c-1.2-1.3-1.9-3-1.9-5.1c0-2.1,0.6-3.8,1.9-5.2c1.3-1.3,2.9-2,4.9-2c0.7,0,1.4,0.1,2.1,0.2c0.7,0.2,1.3,0.4,2,0.7v2.4
			c-0.6-0.4-1.2-0.7-1.8-0.9c-0.6-0.2-1.2-0.3-1.9-0.3c-1.5,0-2.7,0.5-3.6,1.4s-1.3,2.2-1.3,3.7c0,1.4,0.4,2.5,1.3,3.4
			c0.9,0.9,2,1.4,3.4,1.4c0.7,0,1.3-0.1,2-0.4C515.7,135.5,516.4,135.1,517.1,134.6z"/>
		<path class="st3" d="M524.7,124.5v6.5c0,1.9,0.3,3.2,0.8,4c0.6,0.8,1.5,1.1,2.8,1.1s2.3-0.4,2.8-1.1c0.6-0.7,0.8-2.1,0.8-4v-6.5
			h2.3v7.7c0,2-0.5,3.5-1.5,4.5c-1,1-2.5,1.5-4.5,1.5c-2,0-3.4-0.5-4.5-1.5c-1-1-1.5-2.5-1.5-4.5v-7.7H524.7z"/>
		<path class="st3" d="M541.1,137.7v-13.2h2v2.7c0.6-1.1,1.2-2,1.9-2.4c0.7-0.5,1.5-0.7,2.5-0.7c0.3,0,0.5,0,0.8,0.1
			c0.2,0,0.5,0.1,0.7,0.2l-0.7,2c-0.3-0.1-0.5-0.2-0.7-0.2c-0.2,0-0.5-0.1-0.7-0.1c-1.2,0-2.1,0.4-2.7,1.3c-0.6,0.9-0.9,2.2-0.9,3.9
			v6.4H541.1z"/>
		<path class="st3" d="M553.3,118.2c0-0.5,0.2-0.8,0.5-1.2c0.3-0.3,0.7-0.5,1.2-0.5c0.5,0,0.8,0.2,1.2,0.5c0.3,0.3,0.5,0.7,0.5,1.2
			c0,0.5-0.2,0.8-0.5,1.2c-0.3,0.3-0.7,0.5-1.2,0.5s-0.9-0.2-1.2-0.5C553.5,119,553.3,118.6,553.3,118.2z M553.9,137.7v-13.2h2.3
			v13.2H553.9z"/>
		<path class="st3" d="M563.6,126.4h-2.4v-1.9h2.4v-5.3h2.3v5.3h2.4v1.9h-2.4v11.3h-2.3V126.4z"/>
		<path class="st3" d="M572.7,144.1l3.6-7.7l-5.2-11.9h2.6l3.8,9.4l4.1-9.4h2.5l-8.8,19.6H572.7z"/>
		<path class="st3" d="M607.5,126c1.4,0.6,2.4,1.4,3.1,2.3c0.7,1,1,2.1,1,3.4c0,1.9-0.6,3.5-1.8,4.7c-1.2,1.2-2.9,1.8-4.9,1.8
			c-1.7,0-3-0.4-4.2-1.3c-1.1-0.8-1.9-2.1-2.3-3.6l2.3-1.1c0.3,1.3,0.8,2.2,1.5,2.9c0.7,0.7,1.6,1,2.7,1c1.3,0,2.3-0.4,3-1.1
			c0.8-0.7,1.2-1.7,1.2-2.8c0-0.9-0.3-1.8-0.8-2.5c-0.5-0.7-1.4-1.3-2.5-1.8l-2.6-1.1c-1.4-0.6-2.4-1.3-3.1-2.3c-0.7-0.9-1-2-1-3.3
			c0-1.5,0.6-2.7,1.7-3.7s2.5-1.5,4.3-1.5c1.3,0,2.4,0.3,3.3,0.8c0.9,0.5,1.6,1.3,2.2,2.4l-2.1,1.3c-0.5-0.8-1-1.4-1.6-1.8
			c-0.6-0.4-1.2-0.6-2-0.6c-0.9,0-1.7,0.3-2.3,0.9c-0.6,0.6-0.9,1.3-0.9,2.2c0,0.7,0.2,1.4,0.7,1.9c0.5,0.5,1.2,1,2.1,1.5L607.5,126
			z"/>
		<path class="st3" d="M628.8,131.4h-10.4v0.2c0,1.4,0.4,2.5,1.2,3.4c0.8,0.9,1.9,1.3,3.1,1.3c0.9,0,1.7-0.2,2.4-0.7
			c0.7-0.5,1.3-1.2,1.9-2.2l1.7,1.2c-0.7,1.2-1.5,2.1-2.5,2.7c-1,0.6-2.2,0.9-3.6,0.9c-2,0-3.6-0.7-4.9-2c-1.2-1.3-1.9-3.1-1.9-5.2
			c0-2.1,0.6-3.7,1.8-5.1c1.2-1.3,2.8-2,4.7-2c1.9,0,3.5,0.6,4.6,1.9c1.1,1.2,1.7,2.9,1.7,5.1V131.4z M626.4,129.6
			c-0.1-1.2-0.5-2.1-1.2-2.7c-0.7-0.6-1.6-0.9-2.9-0.9c-1.1,0-2,0.3-2.7,1c-0.7,0.7-1.2,1.5-1.3,2.6H626.4z"/>
		<path class="st3" d="M634.6,137.7v-13.2h2.2v2c0.6-0.8,1.2-1.5,2-1.9c0.8-0.4,1.7-0.6,2.8-0.6c1.6,0,2.8,0.4,3.6,1.2
			c0.9,0.8,1.3,2,1.3,3.4v9h-2.3v-7.8c0-1.3-0.3-2.3-0.8-3c-0.6-0.6-1.4-1-2.6-1c-0.7,0-1.3,0.1-1.8,0.4c-0.6,0.2-1,0.6-1.4,1
			c-0.3,0.3-0.5,0.7-0.6,1.2c-0.1,0.4-0.2,1.2-0.2,2.3v6.8H634.6z"/>
		<path class="st3" d="M651.9,135.5l1.9-1.3c0.4,0.7,0.8,1.2,1.4,1.6c0.6,0.3,1.2,0.5,2,0.5c0.7,0,1.3-0.2,1.8-0.5
			c0.5-0.4,0.7-0.8,0.7-1.4c0-0.5-0.2-0.8-0.5-1.2c-0.3-0.3-0.8-0.6-1.6-0.8l-0.4-0.1c-3.2-1.1-4.8-2.5-4.8-4.1
			c0-1.2,0.4-2.1,1.3-2.9c0.9-0.7,2-1.1,3.4-1.1c1.1,0,2.1,0.2,2.9,0.7c0.8,0.5,1.4,1.1,1.8,1.9l-1.8,1.1c-0.3-0.6-0.7-1.1-1.2-1.4
			c-0.5-0.3-1.1-0.5-1.8-0.5c-0.7,0-1.2,0.2-1.6,0.6c-0.4,0.4-0.6,0.8-0.6,1.4c0,0.8,0.9,1.5,2.6,2c0.3,0.1,0.6,0.2,0.8,0.2
			c1.4,0.5,2.4,1,3,1.6c0.6,0.6,0.8,1.4,0.8,2.3c0,1.2-0.4,2.3-1.3,3c-0.9,0.8-2,1.2-3.5,1.2c-1.2,0-2.3-0.2-3.1-0.7
			C653.1,137.1,652.5,136.4,651.9,135.5z"/>
		<path class="st3" d="M679.4,131.4H669v0.2c0,1.4,0.4,2.5,1.2,3.4c0.8,0.9,1.9,1.3,3.1,1.3c0.9,0,1.7-0.2,2.4-0.7
			c0.7-0.5,1.3-1.2,1.9-2.2l1.7,1.2c-0.7,1.2-1.5,2.1-2.5,2.7c-1,0.6-2.2,0.9-3.6,0.9c-2,0-3.6-0.7-4.9-2c-1.2-1.3-1.9-3.1-1.9-5.2
			c0-2.1,0.6-3.7,1.8-5.1c1.2-1.3,2.8-2,4.7-2c1.9,0,3.5,0.6,4.6,1.9c1.1,1.2,1.7,2.9,1.7,5.1V131.4z M677,129.6
			c-0.1-1.2-0.5-2.1-1.2-2.7c-0.7-0.6-1.6-0.9-2.9-0.9c-1.1,0-2,0.3-2.7,1c-0.7,0.7-1.2,1.5-1.3,2.6H677z"/>
	</g>
	<g>
		<path d="M694.6,14.3h-3.1v9.5h-1.2v-9.5h-3.1v-1.1h7.4V14.3z"/>
		<path d="M708.4,23.8h-1.2v-7.1c0-0.6,0-1.3,0.1-2.1h0c-0.1,0.5-0.2,0.8-0.3,1l-3.6,8.2h-0.6l-3.6-8.1c-0.1-0.2-0.2-0.6-0.3-1.1h0
			c0,0.4,0.1,1.1,0.1,2.1v7.1h-1.2V13.2h1.6l3.3,7.4c0.3,0.6,0.4,1,0.5,1.3h0c0.2-0.6,0.4-1,0.5-1.3l3.3-7.4h1.6V23.8z"/>
	</g>
</g>
</svg>
